<svg id="Слой_1" xmlns="http://www.w3.org/2000/svg" viewBox="0 0 64 64"><path fill="#5C5A59" d="M61.083,19.733l-2.802,2.804L41.467,5.725l2.802-2.804c3.096-3.096,8.115-3.096,11.21,0l5.603,5.605	C64.175,11.62,64.175,16.637,61.083,19.733z M21.852,53.355c-0.774,0.774-0.774,2.028,0,2.802c0.774,0.778,2.028,0.778,2.802,0	l30.826-30.818l-2.805-2.804L21.852,53.355z M7.84,39.346c-0.774,0.774-0.774,2.028,0,2.802c0.774,0.774,2.028,0.774,2.802,0	l30.826-30.82l-2.802-2.802L7.84,39.346z M44.265,14.128L13.443,44.95c-1.548,1.544-1.544,4.055,0,5.603	c1.548,1.548,4.055,1.556,5.607-0.004l30.822-30.816L44.265,14.128z M19.043,58.95c-0.948-0.948-1.405-2.152-1.575-3.39	c-0.402,0.062-0.809,0.12-1.223,0.12c-2.117,0-4.106-0.828-5.603-2.326c-1.498-1.501-2.322-3.487-2.322-5.603	c0-0.387,0.058-0.762,0.112-1.138c-1.281-0.174-2.465-0.735-3.394-1.664c-0.089-0.089-0.12-0.209-0.201-0.306L0,64l19.306-4.833	C19.221,59.089,19.124,59.031,19.043,58.95z"/></svg>