<svg xmlns:rdf="http://www.w3.org/1999/02/22-rdf-syntax-ns#" xmlns="http://www.w3.org/2000/svg" version="1.1" xmlns:cc="http://creativecommons.org/ns#" xmlns:dc="http://purl.org/dc/elements/1.1/" viewBox="0 0 64 64">
<path d="m10.5 53.5 43-43" stroke="#5C5A59" stroke-linecap="square" stroke-width="4" fill="none"/>
<path fill="#5C5A59" d="m13.274 45.069c-8.5375-5.575-13.274-13.069-13.274-13.069s12-19 32.25-19c4.017 0 7.7069 0.79399 11.047 2.0465l-6.1235 6.1235c-1.5665-0.74949-3.3205-1.17-5.173-1.17-6.6274 0-12 5.3725-12 12 0 1.8525 0.4205 3.6065 1.17 5.173l-7.8954 7.8954zm37.5-26.186-7.944 7.944c0.7495 1.5665 1.17 3.3205 1.17 5.173 0 6.6274-5.3725 12-12 12-1.8525 0-3.6065-0.4205-5.173-1.17l-6.0555 6.0555c3.4525 1.292 7.2854 2.1145 11.479 2.1145 19.749 0 31.749-19 31.749-19s-4.765-7.5369-13.226-13.117z"/>
</svg>