<?xml version="1.0" encoding="UTF-8" standalone="no"?>
<!-- Generator: Adobe Illustrator 16.0.4, SVG Export Plug-In . SVG Version: 6.00 Build 0)  -->
<svg xmlns:rdf="http://www.w3.org/1999/02/22-rdf-syntax-ns#" xmlns="http://www.w3.org/2000/svg" enable-background="new 0 0 216 146" xml:space="preserve" viewBox="0 0 64 64" version="1.1" y="0px" x="0px" xmlns:cc="http://creativecommons.org/ns#" xmlns:dc="http://purl.org/dc/elements/1.1/"><metadata><rdf:RDF><cc:Work rdf:about=""><dc:format>image/svg+xml</dc:format><dc:type rdf:resource="http://purl.org/dc/dcmitype/StillImage"/><dc:title/></cc:Work></rdf:RDF></metadata><path fill="#58595b" d="m63.67 26.48c-0.223-0.292-0.514-0.4659-0.875-0.5211l-7.63-1.17c-0.4168-1.333-0.9865-2.694-1.709-4.083 0.4997-0.6945 1.249-1.673 2.249-2.938 0.9998-1.264 1.708-2.187 2.125-2.771 0.2225-0.3058 0.3329-0.625 0.3329-0.9584 0-0.3887-0.09666-0.694-0.2915-0.9165-1.01-1.41-3.3-3.773-6.88-7.079-0.33-0.277-0.68-0.416-1.04-0.416-0.4168 0-0.7503 0.1248-1 0.3744l-5.92 4.461c-1.14-0.585-2.39-1.099-3.75-1.544l-1.16-7.666c-0.03-0.3611-0.19-0.6598-0.48-0.8961-0.3-0.2363-0.64-0.3539-1.03-0.3539h-9.25c-0.8 0-1.3 0.3887-1.5 1.167-0.36 1.388-0.76 3.971-1.2 7.749-1.31 0.417-2.57 0.945-3.8 1.584l-5.75-4.459c-0.3611-0.2777-0.7221-0.4163-1.083-0.4163-0.6112 0-1.923 0.9927-3.937 2.979-2.01 1.986-3.377 3.476-4.1 4.476-0.25 0.36-0.375 0.68-0.375 0.96 0 0.3334 0.1386 0.6669 0.4163 0.9998 1.861 2.25 3.347 4.167 4.459 5.75-0.6945 1.278-1.236 2.556-1.625 3.833l-7.75 1.17c-0.3052 0.06-0.5691 0.24-0.7916 0.54-0.2224 0.31-0.3334 0.63-0.3334 0.96v9.25c0 0.3616 0.111 0.6874 0.3334 0.9789 0.2225 0.292 0.514 0.4664 0.875 0.5217l7.625 1.125c0.3887 1.361 0.9579 2.736 1.708 4.124-0.4997 0.6945-1.25 1.673-2.25 2.938-0.9998 1.264-1.709 2.187-2.125 2.771-0.2225 0.3063-0.3334 0.625-0.3334 0.9584 0 0.3611 0.09717 0.6802 0.2915 0.9579 1.083 1.501 3.375 3.834 6.875 7 0.3058 0.3058 0.6531 0.4582 1.042 0.4582 0.4168 0 0.7641-0.1248 1.042-0.3744l5.875-4.459c1.139 0.5835 2.389 1.098 3.75 1.542l1.167 7.666c0.02813 0.3611 0.1877 0.6597 0.4792 0.896 0.29 0.23 0.63 0.35 1.02 0.35h9.25c0.8065 0 1.306-0.3887 1.501-1.167 0.3606-1.389 0.763-3.972 1.207-7.75 1.306-0.4168 2.57-0.9451 3.792-1.584l5.75 4.501c0.3887 0.2496 0.7503 0.3744 1.083 0.3744 0.6106 0 1.916-0.9855 3.916-2.958 2.001-1.972 3.375-3.473 4.125-4.501 0.2501-0.2777 0.3754-0.5968 0.3754-0.9579s-0.1386-0.7093-0.4168-1.042c-2-2.445-3.486-4.361-4.459-5.75 0.5554-1.028 1.098-2.292 1.625-3.792l7.708-1.166c0.3329-0.05574 0.6117-0.2368 0.8336-0.5426 0.222-0.3058 0.3324-0.6255 0.3324-0.9584v-9.25c0.000512-0.3611-0.11-0.6868-0.3329-0.9789zm-24.13 13.06c-2.083 2.084-4.597 3.125-7.542 3.125s-5.458-1.042-7.542-3.125c-2.083-2.083-3.125-4.597-3.125-7.541 0-2.945 1.041-5.458 3.125-7.542 2.084-2.083 4.598-3.125 7.542-3.125 2.945 0 5.459 1.042 7.542 3.125 2.083 2.084 3.125 4.597 3.125 7.542s-1.042 5.458-3.125 7.541z"/></svg>
