<svg xmlns:rdf="http://www.w3.org/1999/02/22-rdf-syntax-ns#" xmlns="http://www.w3.org/2000/svg" viewBox="0 0 64 64" version="1.1" data-icon="eye" data-src="/iconic/svg/eye.svg" xmlns:cc="http://creativecommons.org/ns#" xmlns:dc="http://purl.org/dc/elements/1.1/">
<g>
<path fill="#5C5A59" d="m32.25 13c-20.25 0-32.25 19-32.25 19s12 19 32.25 19c19.75 0 31.75-19 31.75-19s-12-19-31.75-19zm-0.25 31c-6.6275 0-12-5.3725-12-12s5.3725-12 12-12 12 5.3725 12 12-5.3725 12-12 12z"/>
<path fill="#5C5A59" d="m36 30c-1.1045 0-2-0.8955-2-2 0-0.55 0.2225-1.048 0.582-1.4095-0.783-0.3745-1.6565-0.5905-2.582-0.5905-3.3135 0-6 2.6865-6 6s2.6865 6 6 6 6-2.6865 6-6c0-0.926-0.216-1.799-0.5905-2.582-0.3615 0.3595-0.8595 0.582-1.4095 0.582z"/>
</g>
</svg>
